<?xml version="1.0" encoding="UTF-8" standalone="no"?>
<svg width="800" height="600" viewBox="0 0 800 600" xmlns="http://www.w3.org/2000/svg">
  <!-- Fundo do mapa -->
  <rect width="800" height="600" fill="#e6ffe6" />
  
  <!-- Grade de referência -->
  <g stroke="#e0e0e0" stroke-width="1">
    <!-- Linhas horizontais -->
    <line x1="0" y1="100" x2="800" y2="100" />
    <line x1="0" y1="200" x2="800" y2="200" />
    <line x1="0" y1="300" x2="800" y2="300" />
    <line x1="0" y1="400" x2="800" y2="400" />
    <line x1="0" y1="500" x2="800" y2="500" />
    
    <!-- Linhas verticais -->
    <line x1="100" y1="0" x2="100" y2="600" />
    <line x1="200" y1="0" x2="200" y2="600" />
    <line x1="300" y1="0" x2="300" y2="600" />
    <line x1="400" y1="0" x2="400" y2="600" />
    <line x1="500" y1="0" x2="500" y2="600" />
    <line x1="600" y1="0" x2="600" y2="600" />
    <line x1="700" y1="0" x2="700" y2="600" />
  </g>
  
  <!-- Salas e corredores -->
  <g>
    <!-- Parede externa -->
    <rect x="50" y="50" width="700" height="500" fill="none" stroke="#333" stroke-width="4" />
    
    <!-- Laboratórios no centro -->
    <rect x="200" y="200" width="400" height="200" fill="#d1ffd1" stroke="#4caf50" stroke-width="2" />
    
    <!-- Corredores principais -->
    <rect x="350" y="50" width="100" height="500" fill="#f0f0f0" stroke="#ccc" stroke-width="1" />
    <rect x="50" y="250" width="700" height="100" fill="#f0f0f0" stroke="#ccc" stroke-width="1" />
    
    <!-- Salas -->
    <g fill="#fff" stroke="#666" stroke-width="2">
      <!-- Lado esquerdo -->
      <rect x="70" y="70" width="250" height="160" />
      <rect x="70" y="370" width="250" height="160" />
      
      <!-- Lado direito -->
      <rect x="480" y="70" width="250" height="160" />
      <rect x="480" y="370" width="250" height="160" />
    </g>
    
    <!-- Escadas -->
    <g fill="none" stroke="#333" stroke-width="2">
      <path d="M 220,215 L 280,215 L 280,275 L 220,275 Z" />
      <path d="M 225,225 L 275,225" />
      <path d="M 225,235 L 275,235" />
      <path d="M 225,245 L 275,245" />
      <path d="M 225,255 L 275,255" />
      <path d="M 225,265 L 275,265" />
    </g>
    
    <!-- Elevador -->
    <rect x="520" y="215" width="60" height="60" fill="#d3d3d3" stroke="#333" stroke-width="2" />
    <line x1="520" y1="245" x2="580" y2="245" stroke="#333" stroke-width="2" />
  </g>
  
  <!-- Textos -->
  <g font-family="Arial, sans-serif" font-size="12" text-anchor="middle">
    <text x="195" y="150" fill="#333">Departamento de Computação</text>
    <text x="195" y="450" fill="#333">Departamento de Engenharia</text>
    
    <text x="605" y="150" fill="#333">Sala de Professores</text>
    <text x="605" y="450" fill="#333">Sala de Reuniões</text>
    
    <text x="250" y="250" fill="#333">Escada</text>
    <text x="550" y="250" fill="#333">Elevador</text>
    
    <text x="400" y="300" fill="#333" font-size="16" font-weight="bold">Laboratórios de Pesquisa</text>
  </g>
  
  <!-- Laboratórios individuais -->
  <g>
    <rect x="220" y="320" width="80" height="60" fill="#fff" stroke="#4caf50" stroke-width="1" />
    <rect x="320" y="320" width="80" height="60" fill="#fff" stroke="#4caf50" stroke-width="1" />
    <rect x="420" y="320" width="80" height="60" fill="#fff" stroke="#4caf50" stroke-width="1" />
    <rect x="220" y="220" width="80" height="60" fill="#fff" stroke="#4caf50" stroke-width="1" />
    <rect x="420" y="220" width="80" height="60" fill="#fff" stroke="#4caf50" stroke-width="1" />
    
    <text x="260" y="350" font-family="Arial, sans-serif" font-size="10" text-anchor="middle" fill="#333">Lab 2101</text>
    <text x="360" y="350" font-family="Arial, sans-serif" font-size="10" text-anchor="middle" fill="#333">Lab 2102</text>
    <text x="460" y="350" font-family="Arial, sans-serif" font-size="10" text-anchor="middle" fill="#333">Lab 2103</text>
    <text x="260" y="250" font-family="Arial, sans-serif" font-size="10" text-anchor="middle" fill="#333">Lab 2104</text>
    <text x="460" y="250" font-family="Arial, sans-serif" font-size="10" text-anchor="middle" fill="#333">Lab 2105</text>
  </g>
  
  <!-- Título -->
  <text x="400" y="30" font-family="Arial, sans-serif" font-size="24" font-weight="bold" text-anchor="middle" fill="#333">Segundo Andar - UFC Russas</text>
  
  <!-- Ponto de referência (estrela) -->
  <g transform="translate(400, 300)">
    <path d="M 0 -20 L 4 -6 L 20 -6 L 8 2 L 12 18 L 0 9 L -12 18 L -8 2 L -20 -6 L -4 -6 Z" fill="#ff9800" stroke="#ff7000" stroke-width="1" />
  </g>
</svg> 