<?xml version="1.0" encoding="UTF-8" standalone="no"?>
<svg width="800" height="600" viewBox="0 0 800 600" xmlns="http://www.w3.org/2000/svg">
  <!-- Fundo do mapa -->
  <rect width="800" height="600" fill="#f8f8f8" />
  
  <!-- Grade de referência -->
  <g stroke="#e0e0e0" stroke-width="1">
    <!-- Linhas horizontais -->
    <line x1="0" y1="100" x2="800" y2="100" />
    <line x1="0" y1="200" x2="800" y2="200" />
    <line x1="0" y1="300" x2="800" y2="300" />
    <line x1="0" y1="400" x2="800" y2="400" />
    <line x1="0" y1="500" x2="800" y2="500" />
    
    <!-- Linhas verticais -->
    <line x1="100" y1="0" x2="100" y2="600" />
    <line x1="200" y1="0" x2="200" y2="600" />
    <line x1="300" y1="0" x2="300" y2="600" />
    <line x1="400" y1="0" x2="400" y2="600" />
    <line x1="500" y1="0" x2="500" y2="600" />
    <line x1="600" y1="0" x2="600" y2="600" />
    <line x1="700" y1="0" x2="700" y2="600" />
  </g>
  
  <!-- Salas e corredores -->
  <g>
    <!-- Parede externa -->
    <rect x="50" y="50" width="700" height="500" fill="none" stroke="#333" stroke-width="4" />
    
    <!-- Corredores principais -->
    <rect x="150" y="50" width="30" height="500" fill="#f0f0f0" stroke="#ccc" stroke-width="1" />
    <rect x="300" y="50" width="30" height="500" fill="#f0f0f0" stroke="#ccc" stroke-width="1" />
    <rect x="450" y="50" width="30" height="500" fill="#f0f0f0" stroke="#ccc" stroke-width="1" />
    <rect x="600" y="50" width="30" height="500" fill="#f0f0f0" stroke="#ccc" stroke-width="1" />
    
    <!-- Corredores horizontais -->
    <rect x="50" y="150" width="700" height="30" fill="#f0f0f0" stroke="#ccc" stroke-width="1" />
    <rect x="50" y="300" width="700" height="30" fill="#f0f0f0" stroke="#ccc" stroke-width="1" />
    <rect x="50" y="450" width="700" height="30" fill="#f0f0f0" stroke="#ccc" stroke-width="1" />
    
    <!-- Salas -->
    <g fill="#fff" stroke="#666" stroke-width="2">
      <!-- Linha 1 -->
      <rect x="50" y="50" width="100" height="100" />
      <rect x="180" y="50" width="120" height="100" />
      <rect x="330" y="50" width="120" height="100" />
      <rect x="480" y="50" width="120" height="100" />
      <rect x="630" y="50" width="120" height="100" />
      
      <!-- Linha 2 -->
      <rect x="50" y="180" width="100" height="120" />
      <rect x="180" y="180" width="120" height="120" />
      <rect x="330" y="180" width="120" height="120" />
      <rect x="480" y="180" width="120" height="120" />
      <rect x="630" y="180" width="120" height="120" />
      
      <!-- Linha 3 -->
      <rect x="50" y="330" width="100" height="120" />
      <rect x="180" y="330" width="120" height="120" />
      <rect x="330" y="330" width="120" height="120" />
      <rect x="480" y="330" width="120" height="120" />
      <rect x="630" y="330" width="120" height="120" />
    </g>
  </g>
  
  <!-- Textos -->
  <g font-family="Arial, sans-serif" font-size="12" text-anchor="middle">
    <text x="100" y="100" fill="#333">Sala 101</text>
    <text x="240" y="100" fill="#333">Laboratório</text>
    <text x="390" y="100" fill="#333">Sala 102</text>
    <text x="540" y="100" fill="#333">Sala 103</text>
    <text x="690" y="100" fill="#333">Sala 104</text>
    
    <text x="100" y="240" fill="#333">Sala 201</text>
    <text x="240" y="240" fill="#333">Biblioteca</text>
    <text x="390" y="240" fill="#333">Sala 202</text>
    <text x="540" y="240" fill="#333">Sala 203</text>
    <text x="690" y="240" fill="#333">Sala 204</text>
    
    <text x="100" y="390" fill="#333">Sala 301</text>
    <text x="240" y="390" fill="#333">Auditório</text>
    <text x="390" y="390" fill="#333">Sala 302</text>
    <text x="540" y="390" fill="#333">Sala 303</text>
    <text x="690" y="390" fill="#333">Sala 304</text>
  </g>
  
  <!-- Título -->
  <text x="400" y="30" font-family="Arial, sans-serif" font-size="24" font-weight="bold" text-anchor="middle" fill="#333">Andar Térreo - UFC Russas</text>
  
  <!-- Ponto de referência (estrela) -->
  <g transform="translate(400, 300)">
    <path d="M 0 -20 L 4 -6 L 20 -6 L 8 2 L 12 18 L 0 9 L -12 18 L -8 2 L -20 -6 L -4 -6 Z" fill="#ff9800" stroke="#ff7000" stroke-width="1" />
  </g>
</svg> 